<?xml version="1.0" encoding="utf-8"?>
<svg version="1.1" xmlns:xlink="http://www.w3.org/1999/xlink" width="8px" height="7px" xmlns="http://www.w3.org/2000/svg">
  <g transform="matrix(1 0 0 1 -527 -386 )">
    <path d="M 7.90438048835996 5.34065590385186  C 7.73639784474039 5.08161115363408  7.40626915624212 5.01908947574487  7.16722638050485 5.2004547800701  C 6.58414533719301 5.64157616331636  5.90191554410477 5.86272179052604  5.20447848847695 5.85253626894574  C 5.11226247754273 5.85150043326384  5.02067821905076 5.84633536385345  4.93022295619717 5.83773945616864  C 4.89324834903922 5.83397117766639  4.85625169118526 5.82743400809622  4.81910729366766 5.82243707092475  C 4.74787913524594 5.81225154934445  4.67649221181254 5.80194610127203  4.60718356648306 5.78746203797437  C 4.56421447760048 5.77867330730224  4.52223767004074 5.76679000283357  4.48025093966778 5.75627879852468  C 4.41225100314961 5.73903760165827  4.34455646877193 5.72165296330133  4.27819489897126 5.70030604770488  C 4.2462103643323 5.68962671115703  4.21505052572611 5.67739420896132  4.18339344392371 5.66586010221969  C 4.1068367347984 5.63813239179278  4.03059535062686 5.60955108692201  3.95630765812641 5.57595991163064  C 3.93951936067907 5.56869965585801  3.92336391820877 5.56014019642079  3.90656459541339 5.55201341295511  C 3.81999356267123 5.51083747491243  3.73406530771929 5.46762748950348  3.65136637720577 5.41905961169682  C 3.64733550996552 5.41680805059486  3.64393749770227 5.41491744471917  3.63990663046201 5.41270233186481  C 3.35935121431706 5.24630197255564  3.1025388851577 5.03859281546252  2.87739466314871 4.7958980436697  C 2.87399665088545 4.79212976516745  2.87028221113373 4.78762664296354  2.86657879672998 4.78332810124617  C 2.7966372964235 4.70752632798015  2.72993614590348 4.62830547393892  2.66645329447379 4.5456408483741  C 2.65320964641852 4.52806338702982  2.64028352838653 4.50912440727507  2.62688221785446 4.49104137346403  C 2.16866765113683 3.87203372991376  1.89231289259183 3.08867153191985  1.89231289259183 2.23640686120624  L 2.66958122981163 2.23640686120624  C 2.68965508097233 2.23640686120624  2.709085051808 2.22493271771065  2.71926806324973 2.2047662550366  C 2.72946320257431 2.18459979236256  2.72775758123385 2.16098955816493  2.71671679771525 2.14309934734121  L 1.41017332064617 0.0270892782188481  C 1.40007961452346 0.0107510572930963  1.3827279217917 0  1.36302672739452 0  C 1.34332553299727 0  1.32596171238272 0.0107639905422516  1.31588013414286 0.0270892782188481  L 0.00931465047906074 2.14304996584446  C -0.00172723557429806 2.1609413524181  -0.00342072903190925 2.1845504108658  0.00676338494464045 2.20471687353985  C 0.0169585242692237 2.22488333621392  0.0363774697568593 2.23635747970948  0.056461243730716 2.23635747970948  L 0.833887640339912 2.23635747970948  C 0.833887640339912 3.23828806108256  1.12315859410362 4.1669917615203  1.61464435357546 4.93484699378381  C 1.62062780995205 4.9455498453301  1.62498613002886 4.95691581983278  1.6316013388477 4.96760691387983  C 1.68247339719911 5.04612937246699  1.73901358697346 5.1186449246991  1.79360118761147 5.19288177481803  C 1.81395728768178 5.22095868297197  1.83301460175394 5.24987742807054  1.85417224462614 5.27742407300937  C 1.93461318386282 5.38284298682807  2.02004419561856 5.48188228156623  2.10791401435881 5.57868059695175  C 2.11631422702385 5.5883240978177  2.1240694568291 5.59778770894545  2.13231200701734 5.60640830737866  C 2.4272400668559 5.92521877766685  2.76076787015224 6.19393289524892  3.12352497361451 6.40870830937744  C 3.13289541690632 6.41475166398009  3.14226586019814 6.42096432657158  3.15259661130351 6.42663496844876  C 3.25709596247944 6.48724252546381  3.36449828779204 6.54202306586199  3.47336698439282 6.59387834045251  C 3.50050808364155 6.60643534962686  3.52699427721727 6.62057021519752  3.55460946643139 6.6329837828813  C 3.64765017339831 6.67466529339076  3.74325317124775 6.71116997699059  3.83968086512995 6.7459757019521  C 3.88522437277783 6.76268663560336  3.930452555472 6.77973500948242  3.97663884091016 6.79504915222551  C 4.06079421989863 6.82192209245863  4.14688013732743 6.8444835577252  4.23376759755805 6.86669700101468  C 4.29126699261115 6.88116813106319  4.34842790947965 6.89684440478247  4.40707945340201 6.9088958414901  C 4.43146531817776 6.9142419763886  4.45439583701337 6.92234406910589  4.47831863717177 6.92629341309622  C 4.56003520917572 6.94196851106559  4.64240668685274 6.95074548423848  4.72429304921639 6.96142482078632  C 4.75384980221881 6.96522954753617  4.78292143990788 6.97057450668472  4.81249032079314 6.97399476320986  C 4.95963241054991 6.98968279442834  5.10627725711046 7  5.25278759442504 7  C 6.14935676845145 7  7.02412552181551 6.70393206046648  7.77450078601587 6.13639404553211  C 8.0135656124492 5.95504049870608  8.07187867818703 5.59919508160291  7.90438048835996 5.34065590385186  Z " fill-rule="nonzero" fill="#ffffff" stroke="none" transform="matrix(1 0 0 1 527 386 )" />
  </g>
</svg>